<mxfile host="app.diagrams.net" modified="2024-02-21T09:49:28.343Z" agent="Mozilla/5.0 (Windows NT 10.0; Win64; x64) AppleWebKit/537.36 (KHTML, like Gecko) Chrome/121.0.0.0 Safari/537.36" version="23.0.2" etag="hDfmmtRoL5Rn6qN_P54J" type="github">
  <diagram name="Page-1" id="aX9NVSANMayEhemVjV1V">
    <mxGraphModel>
      <root>
        <mxCell id="0" />
        <mxCell id="1" parent="0" />
      </root>
    </mxGraphModel>
  </diagram>
</mxfile>
